<svg xmlns="http://www.w3.org/2000/svg" viewBox="0 0 1600 900" role="img" aria-labelledby="title desc">
  <title id="title">Session 4 Monday Morning action path</title>
  <desc id="desc">Papercraft Monday morning workspace with calendar, path, laptop, checklist and cross-lit doorway.</desc>
  <defs>
    <linearGradient id="paper" x1="0" x2="1" y1="0" y2="1"><stop stop-color="#f7f3e8"/><stop offset="1" stop-color="#e8d8b8"/></linearGradient>
    <linearGradient id="green" x1="0" x2="1"><stop stop-color="#1e2a33"/><stop offset="1" stop-color="#234638"/></linearGradient>
    <linearGradient id="gold" x1="0" x2="1"><stop stop-color="#b99245"/><stop offset="1" stop-color="#d99a3d"/></linearGradient>
    <filter id="shadow"><feDropShadow dx="0" dy="18" stdDeviation="16" flood-color="#17130f" flood-opacity=".25"/></filter>
    <pattern id="fibres" width="48" height="48" patternUnits="userSpaceOnUse"><path d="M4 10h36M10 34h30M20 6h20" stroke="#9a6b3f" stroke-opacity=".08"/></pattern>
  </defs>
  <rect width="1600" height="900" fill="url(#paper)"/><rect width="1600" height="900" fill="url(#fibres)"/>
  <path d="M0 600c210-95 400-88 590-20s382 72 568-20 312-106 442-64v404H0z" fill="#234638"/>
  <path d="M0 662c250-75 470-54 662 18s390 30 600-64 262-72 338-44v328H0z" fill="#4f6b3a" opacity=".72"/>
  <rect y="695" width="1600" height="205" fill="#5b3a24"/>
  <g filter="url(#shadow)">
    <rect x="390" y="478" width="440" height="230" rx="16" fill="#9a6b3f"/>
    <rect x="418" y="500" width="384" height="174" rx="8" fill="#f7f3e8"/>
    <circle cx="610" cy="575" r="52" fill="#d99a3d"/>
    <path d="M430 662c112-76 230-78 362 0" fill="#234638"/>
    <path d="M450 655c48-54 100-82 156-82 68 0 126 42 172 89" fill="none" stroke="#b99245" stroke-width="16"/>
    <rect x="448" y="710" width="390" height="30" rx="6" fill="#e8d8b8"/>
  </g>
  <g filter="url(#shadow)">
    <rect x="870" y="336" width="246" height="360" rx="26" fill="#f7f3e8"/>
    <rect x="874" y="664" width="240" height="34" rx="8" fill="#234638"/>
    <g fill="#b99245"><circle cx="922" cy="402" r="20"/><circle cx="922" cy="470" r="20"/><circle cx="922" cy="538" r="20"/><circle cx="922" cy="606" r="20"/></g>
    <g stroke="#f7f3e8" stroke-width="7" fill="none"><path d="m911 400 9 9 17-23"/><path d="m911 468 9 9 17-23"/><path d="m911 536 9 9 17-23"/><path d="m911 604 9 9 17-23"/></g>
    <g stroke="#9a6b3f" stroke-width="8" opacity=".7"><path d="M962 400h106M962 424h76M962 468h112M962 492h68M962 536h104M962 560h82M962 604h110M962 628h70"/></g>
  </g>
  <g filter="url(#shadow)">
    <path d="M1108 706c74-102 178-164 318-196" fill="none" stroke="#b99245" stroke-width="58" stroke-linecap="round"/>
    <path d="M1142 690c64-74 154-122 272-151" fill="none" stroke="#f7f3e8" stroke-width="16" stroke-linecap="round"/>
    <rect x="1192" y="520" width="118" height="174" rx="10" fill="#b99245"/>
    <rect x="1216" y="548" width="70" height="116" rx="12" fill="#f7f3e8"/>
  </g>
  <g filter="url(#shadow)">
    <rect x="1120" y="236" width="16" height="250" fill="#d99a3d"/>
    <rect x="1022" y="342" width="224" height="16" fill="#d99a3d"/>
    <g fill="#234638"><rect x="1092" y="430" width="54" height="128"/><rect x="1160" y="402" width="48" height="156"/><rect x="1222" y="470" width="50" height="88"/><rect x="1284" y="386" width="58" height="172"/></g>
    <path d="M1262 590l146-146 48 48 42-146 36 164-50-50-164 164z" fill="url(#gold)"/>
  </g>
  <g filter="url(#shadow)">
    <rect x="1182" y="686" width="164" height="108" rx="6" fill="#e8d8b8"/>
    <rect x="1208" y="656" width="112" height="40" rx="8" fill="#f7f3e8"/>
    <g stroke="#9a6b3f" stroke-width="4"><path d="M1204 716h112M1204 746h112M1204 776h112"/><path d="M1232 704v88M1266 704v88M1300 704v88"/></g>
  </g>
  <g filter="url(#shadow)"><rect x="252" y="750" width="220" height="56" rx="7" fill="#234638"/><rect x="266" y="730" width="196" height="42" rx="6" fill="#7c8f5a"/><path d="M328 738l96 50" stroke="#b99245" stroke-width="10" stroke-linecap="round"/></g>
</svg>
