<svg xmlns="http://www.w3.org/2000/svg" viewBox="0 0 1600 900" role="img" aria-labelledby="title desc">
  <title id="title">Session 1 The Daily Grind papercraft desk</title>
  <desc id="desc">Papercraft desk with pillars for household, community, work and commerce.</desc>
  <defs>
    <linearGradient id="paper" x1="0" x2="1" y1="0" y2="1"><stop stop-color="#f7f3e8"/><stop offset="1" stop-color="#e8d8b8"/></linearGradient>
    <linearGradient id="green" x1="0" x2="1"><stop stop-color="#234638"/><stop offset="1" stop-color="#1e2a33"/></linearGradient>
    <linearGradient id="gold" x1="0" x2="1"><stop stop-color="#b99245"/><stop offset="1" stop-color="#d99a3d"/></linearGradient>
    <filter id="shadow"><feDropShadow dx="0" dy="18" stdDeviation="14" flood-color="#17130f" flood-opacity=".24"/></filter>
    <pattern id="fibres" width="44" height="44" patternUnits="userSpaceOnUse"><path d="M6 12h30M18 32h18" stroke="#9a6b3f" stroke-opacity=".08"/></pattern>
  </defs>
  <rect width="1600" height="900" fill="url(#paper)"/><rect width="1600" height="900" fill="url(#fibres)"/>
  <path d="M0 535c210-90 414-62 590 0 156 55 292 60 474 0s350-110 536-44v409H0z" fill="#234638" opacity=".92"/>
  <rect y="685" width="1600" height="215" fill="#9a6b3f"/>
  <path d="M910 150h420a200 200 0 0 1 0 400H910a200 200 0 0 1 0-400z" fill="#234638" filter="url(#shadow)"/>
  <path d="M1060 130a220 220 0 0 1 380 194" fill="none" stroke="#e8d8b8" stroke-width="34" opacity=".65"/>
  <g filter="url(#shadow)">
    <g transform="translate(835 225)"><rect x="30" y="120" width="92" height="245" fill="#f7f3e8"/><rect x="14" y="100" width="124" height="26" fill="#e8d8b8"/><rect x="4" y="352" width="144" height="28" fill="#e8d8b8"/><circle cx="76" cy="60" r="62" fill="#e8d8b8"/><path d="M48 78V48h55v30M60 78V60h12v18M82 78V60h12v18" fill="#b99245"/></g>
    <g transform="translate(1012 225)"><rect x="30" y="120" width="92" height="245" fill="#f7f3e8"/><rect x="14" y="100" width="124" height="26" fill="#e8d8b8"/><rect x="4" y="352" width="144" height="28" fill="#e8d8b8"/><circle cx="76" cy="60" r="62" fill="#e8d8b8"/><circle cx="55" cy="62" r="15" fill="#b99245"/><circle cx="80" cy="54" r="17" fill="#b99245"/><circle cx="105" cy="64" r="14" fill="#b99245"/><path d="M36 91c11-23 29-34 44-34s36 12 48 34" fill="#b99245"/></g>
    <g transform="translate(1189 225)"><rect x="30" y="120" width="92" height="245" fill="#f7f3e8"/><rect x="14" y="100" width="124" height="26" fill="#e8d8b8"/><rect x="4" y="352" width="144" height="28" fill="#e8d8b8"/><circle cx="76" cy="60" r="62" fill="#e8d8b8"/><rect x="43" y="50" width="66" height="46" rx="5" fill="#b99245"/><path d="M60 50v-14h32v14" stroke="#b99245" stroke-width="10" fill="none"/></g>
    <g transform="translate(1366 225)"><rect x="30" y="120" width="92" height="245" fill="#f7f3e8"/><rect x="14" y="100" width="124" height="26" fill="#e8d8b8"/><rect x="4" y="352" width="144" height="28" fill="#e8d8b8"/><circle cx="76" cy="60" r="62" fill="#e8d8b8"/><path d="M40 43h18l10 44h58M66 56h60l-10 24H72" stroke="#b99245" stroke-width="9" fill="none"/><circle cx="76" cy="98" r="7" fill="#b99245"/><circle cx="112" cy="98" r="7" fill="#b99245"/></g>
  </g>
  <path d="M240 610l90-58 40 58 66-120 44 80 80-148 50 220" fill="none" stroke="#b99245" stroke-width="16" stroke-linecap="round" filter="url(#shadow)"/>
  <g filter="url(#shadow)"><rect x="885" y="530" width="320" height="190" rx="18" fill="#5b3a24"/><rect x="912" y="555" width="266" height="142" rx="8" fill="#234638"/><rect x="948" y="720" width="260" height="26" rx="5" fill="#e8d8b8"/></g>
  <g filter="url(#shadow)"><rect x="114" y="626" width="160" height="130" rx="6" fill="#e8d8b8"/><path d="M130 660h126M130 692h126M130 724h126M162 645v98M204 645v98" stroke="#9a6b3f" stroke-width="4"/></g>
  <g filter="url(#shadow)"><rect x="1270" y="515" width="210" height="240" rx="18" fill="#5b3a24"/><rect x="1312" y="548" width="128" height="56" rx="8" fill="#9a6b3f"/><rect x="1288" y="604" width="174" height="126" rx="12" fill="#9a6b3f"/></g>
</svg>
